<?xml version="1.0" ?><svg id="Layer_1" style="enable-background:new 0 0 512 512;" version="1.1" viewBox="0 0 512 512" xml:space="preserve" xmlns="http://www.w3.org/2000/svg" xmlns:xlink="http://www.w3.org/1999/xlink"><style type="text/css">
	.st0{fill:#7DBAE7;}
	.st1{fill:#474747;}
	.st2{fill:#A6D17A;}
	.st3{fill:#FFCE6C;}
	.st4{fill:#ED6F62;}
</style><g id="XMLID_176_"><g id="XMLID_175_"><rect class="st0" height="257.9" id="XMLID_129_" width="94.9" x="41.4" y="206.5"/><g id="XMLID_119_"><path class="st1" d="M62.4,505.6H42v-4l9.4-10.7c1.4-1.7,2.4-3.1,3-4.2s0.9-2.2,0.9-3.2c0-1.3-0.3-2.3-0.9-3     c-0.6-0.8-1.6-1.1-2.8-1.1c-1.3,0-2.4,0.5-3.1,1.4c-0.7,1-1.1,2.2-1.1,3.7h-5.9l0-0.1c-0.1-2.7,0.8-5,2.7-6.9     c1.9-1.9,4.3-2.8,7.5-2.8c3.1,0,5.6,0.8,7.3,2.4c1.7,1.6,2.6,3.7,2.6,6.4c0,1.8-0.5,3.5-1.5,5c-1,1.5-2.6,3.6-5,6.3l-5,6l0,0.1     h12.5V505.6z" id="XMLID_127_"/><path class="st1" d="M86.8,494.5c0,3.6-0.9,6.4-2.8,8.4c-1.9,2-4.4,3.1-7.5,3.1c-3.1,0-5.6-1-7.5-3.1     c-1.9-2-2.8-4.8-2.8-8.4v-8.4c0-3.6,0.9-6.4,2.8-8.4c1.9-2.1,4.4-3.1,7.5-3.1c3.1,0,5.6,1,7.5,3.1c1.9,2.1,2.8,4.9,2.8,8.4V494.5     z M80.7,485.5c0-2-0.4-3.5-1.1-4.5c-0.7-1.1-1.8-1.6-3.1-1.6c-1.3,0-2.4,0.5-3.1,1.6c-0.7,1.1-1.1,2.6-1.1,4.5v9.6     c0,2,0.4,3.5,1.1,4.6c0.7,1.1,1.8,1.6,3.1,1.6c1.3,0,2.4-0.5,3.1-1.6c0.7-1.1,1.1-2.6,1.1-4.6V485.5z" id="XMLID_124_"/><path class="st1" d="M105.4,505.6h-6.1v-25.2H93v-4.7l12.4-1.1V505.6z" id="XMLID_122_"/><path class="st1" d="M136.3,479.8c-3.5,4-5.8,7.7-7,10.9c-1.2,3.2-1.9,6.9-1.9,11.1v3.8h-6.1v-3.8     c0-4.2,0.8-8.1,2.3-11.6c1.6-3.5,3.8-7,6.8-10.4h-15.6v-4.7h21.5V479.8z" id="XMLID_120_"/></g><g id="XMLID_76_"><path class="st1" d="M57.1,197.8h-7.7v-32h-8V160l15.7-1.4V197.8z" id="XMLID_78_"/><path class="st1" d="M70.9,180.8l2.2-21.6h21.6v6.2H79.5l-1.1,9c0.7-0.5,1.6-1,2.7-1.3c1.1-0.3,2.3-0.5,3.6-0.6     c3.6-0.1,6.4,1.1,8.4,3.3c2,2.3,3,5.5,3,9.6c0,3.8-1.1,6.9-3.2,9.3c-2.1,2.4-5.4,3.6-9.8,3.6c-3.6,0-6.6-0.9-9.1-2.8     c-2.5-1.9-3.8-4.5-3.7-7.8l0.1-0.1l7.5-0.3c0,1.6,0.5,2.9,1.5,3.8c1,0.9,2.3,1.4,3.8,1.4c1.8,0,3.2-0.6,4-1.8     c0.8-1.2,1.3-2.9,1.3-5.2c0-2.2-0.5-4-1.4-5.3c-0.9-1.3-2.3-2-4.1-2c-1.5,0-2.6,0.3-3.4,0.8c-0.8,0.5-1.4,1.3-1.7,2.2L70.9,180.8     z" id="XMLID_104_"/><path class="st1" d="M101,166.6c0-2.3,0.7-4.2,2.2-5.7c1.5-1.5,3.5-2.3,6.2-2.3c2.7,0,4.7,0.8,6.2,2.3     c1.5,1.5,2.2,3.4,2.2,5.7v2c0,2.3-0.7,4.2-2.2,5.7c-1.5,1.5-3.5,2.3-6.2,2.3c-2.7,0-4.7-0.8-6.2-2.3c-1.5-1.5-2.2-3.4-2.2-5.7     V166.6z M106.1,168.6c0,1,0.3,1.9,0.9,2.6c0.6,0.7,1.4,1,2.4,1c1,0,1.8-0.3,2.4-1c0.6-0.7,0.8-1.6,0.8-2.6v-2     c0-1-0.3-1.9-0.9-2.6c-0.6-0.7-1.4-1.1-2.4-1.1c-1,0-1.8,0.4-2.4,1.1c-0.6,0.7-0.8,1.6-0.8,2.6V168.6z M110.7,194.9l-3.8-2     l18.9-30.2l3.8,2L110.7,194.9z M119.5,188.3c0-2.3,0.7-4.2,2.2-5.7c1.5-1.5,3.6-2.3,6.2-2.3c2.7,0,4.7,0.8,6.2,2.3     c1.5,1.5,2.2,3.4,2.2,5.7v2c0,2.3-0.7,4.2-2.2,5.7c-1.5,1.5-3.5,2.3-6.2,2.3c-2.7,0-4.7-0.8-6.2-2.3c-1.5-1.5-2.2-3.4-2.2-5.7     V188.3z M124.6,190.4c0,1,0.3,1.9,0.9,2.6c0.6,0.7,1.4,1.1,2.4,1.1c1.2,0,2-0.3,2.5-1c0.5-0.7,0.7-1.6,0.7-2.7v-2     c0-1-0.3-1.9-0.9-2.6c-0.6-0.7-1.4-1.1-2.4-1.1c-1.1,0-1.9,0.4-2.4,1.1c-0.6,0.7-0.8,1.6-0.8,2.6V190.4z" id="XMLID_130_"/></g></g><g id="XMLID_174_"><rect class="st2" height="309.5" id="XMLID_117_" width="94.9" x="152.8" y="154.9"/><g id="XMLID_105_"><path class="st1" d="M173.8,505.6h-20.4v-4l9.4-10.7c1.4-1.7,2.4-3.1,3-4.2c0.6-1.1,0.9-2.2,0.9-3.2     c0-1.3-0.3-2.3-0.9-3c-0.6-0.8-1.6-1.1-2.8-1.1c-1.3,0-2.3,0.5-3.1,1.4c-0.7,1-1.1,2.2-1.1,3.7h-5.9l0-0.1     c-0.1-2.7,0.8-5,2.7-6.9c1.9-1.9,4.3-2.8,7.5-2.8c3.1,0,5.5,0.8,7.3,2.4c1.7,1.6,2.6,3.7,2.6,6.4c0,1.8-0.5,3.5-1.5,5     c-1,1.5-2.6,3.6-5,6.2l-5,6l0,0.1h12.4V505.6z" id="XMLID_115_"/><path class="st1" d="M198.1,494.5c0,3.6-0.9,6.4-2.8,8.4c-1.9,2-4.4,3.1-7.5,3.1c-3.1,0-5.6-1-7.5-3.1     c-1.9-2-2.8-4.8-2.8-8.4v-8.4c0-3.6,0.9-6.4,2.8-8.4c1.9-2,4.4-3.1,7.5-3.1c3.1,0,5.6,1,7.5,3.1c1.9,2,2.8,4.8,2.8,8.4V494.5z      M192,485.5c0-2-0.4-3.5-1.1-4.5c-0.7-1.1-1.8-1.6-3.1-1.6c-1.3,0-2.4,0.5-3.1,1.6c-0.7,1.1-1.1,2.6-1.1,4.5v9.6     c0,2,0.4,3.5,1.1,4.6c0.7,1.1,1.8,1.6,3.1,1.6c1.3,0,2.4-0.5,3.1-1.6c0.7-1.1,1.1-2.6,1.1-4.6V485.5z" id="XMLID_112_"/><path class="st1" d="M216.7,505.6h-6.1v-25.1h-6.3v-4.7l12.4-1.1V505.6z" id="XMLID_110_"/><path class="st1" d="M246.7,483c0,1.5-0.4,2.8-1.2,4c-0.8,1.2-1.9,2.1-3.2,2.7c1.7,0.7,3,1.7,3.9,2.9     c1,1.3,1.5,2.7,1.5,4.4c0,2.8-1,5-2.9,6.6c-2,1.6-4.5,2.4-7.5,2.4c-3.2,0-5.8-0.8-7.9-2.4c-2-1.6-3.1-3.8-3.1-6.6     c0-1.6,0.5-3.1,1.5-4.4c1-1.3,2.4-2.3,4.1-2.9c-1.4-0.7-2.6-1.6-3.4-2.7c-0.8-1.2-1.2-2.5-1.2-4c0-2.7,0.9-4.7,2.7-6.2     c1.8-1.4,4.2-2.2,7.1-2.2c2.8,0,5.1,0.7,6.8,2.2S246.7,480.4,246.7,483z M241.6,496.8c0-1.4-0.4-2.5-1.3-3.3     c-0.8-0.9-1.9-1.3-3.1-1.3c-1.4,0-2.5,0.4-3.4,1.3c-0.9,0.9-1.4,2-1.4,3.3c0,1.4,0.4,2.5,1.3,3.3c0.9,0.8,2.1,1.2,3.5,1.2     c1.3,0,2.3-0.4,3.1-1.2C241.2,499.3,241.6,498.2,241.6,496.8z M240.6,483.3c0-1.2-0.3-2.1-0.9-2.9c-0.6-0.7-1.4-1.1-2.4-1.1     c-1.1,0-2.1,0.3-2.7,1s-1,1.6-1,2.9c0,1.2,0.3,2.2,1,3c0.7,0.8,1.6,1.1,2.8,1.1c1,0,1.8-0.4,2.4-1.1     C240.3,485.6,240.6,484.6,240.6,483.3z" id="XMLID_106_"/></g><g id="XMLID_77_"><path class="st1" d="M165.4,123.2c1.8,0,3.1-0.5,4-1.4c0.9-0.9,1.3-2.2,1.3-3.9c0-1.4-0.5-2.6-1.4-3.5     c-0.9-0.9-2.2-1.4-3.8-1.4c-1.4,0-2.5,0.4-3.5,1.3c-0.9,0.8-1.4,1.9-1.4,3.2h-7.3l-0.1-0.2c-0.1-2.9,1-5.4,3.4-7.3     c2.4-1.9,5.3-2.9,8.8-2.9c3.9,0,7,0.9,9.2,2.7c2.3,1.8,3.4,4.5,3.4,7.9c0,1.7-0.5,3.3-1.5,4.7c-1,1.4-2.3,2.6-4.1,3.4     c2,0.7,3.5,1.9,4.5,3.4c1.1,1.5,1.6,3.3,1.6,5.4c0,3.4-1.2,6.1-3.7,8.1c-2.5,2-5.7,3-9.5,3c-3.4,0-6.4-0.9-9-2.8     c-2.6-1.9-3.8-4.5-3.7-7.8l0.1-0.2h7.3c0,1.4,0.5,2.6,1.5,3.5s2.3,1.4,3.8,1.4c1.7,0,3.1-0.5,4.2-1.5c1.1-1,1.6-2.3,1.6-3.8     c0-2-0.5-3.4-1.5-4.4c-1-1-2.5-1.4-4.4-1.4h-4.1v-5.6H165.4z" id="XMLID_136_"/><path class="st1" d="M208.6,131.6c0,4.4-1.2,7.8-3.5,10.4c-2.3,2.5-5.4,3.8-9.2,3.8c-3.8,0-6.9-1.3-9.2-3.8     c-2.3-2.5-3.5-6-3.5-10.4v-10.3c0-4.4,1.2-7.8,3.5-10.4c2.3-2.5,5.4-3.8,9.2-3.8c3.8,0,6.9,1.3,9.2,3.8c2.3,2.5,3.5,6,3.5,10.4     V131.6z M201.1,120.5c0-2.4-0.5-4.3-1.4-5.6c-0.9-1.3-2.2-2-3.8-2c-1.6,0-2.9,0.7-3.8,2c-0.9,1.3-1.4,3.2-1.4,5.6v11.8     c0,2.5,0.5,4.3,1.4,5.7c0.9,1.3,2.2,2,3.9,2c1.6,0,2.9-0.7,3.8-2c0.9-1.3,1.4-3.2,1.4-5.7V120.5z" id="XMLID_138_"/><path class="st1" d="M213.5,114.9c0-2.2,0.7-4.1,2.2-5.5c1.4-1.5,3.4-2.2,6-2.2c2.6,0,4.6,0.7,6,2.2     c1.4,1.5,2.1,3.3,2.1,5.6v2c0,2.2-0.7,4.1-2.1,5.5c-1.4,1.5-3.4,2.2-6,2.2c-2.6,0-4.6-0.7-6-2.2c-1.4-1.5-2.2-3.3-2.2-5.5V114.9z      M218.5,116.9c0,1,0.3,1.8,0.8,2.5c0.5,0.7,1.3,1,2.4,1c1,0,1.8-0.3,2.3-1c0.5-0.7,0.8-1.5,0.8-2.5v-2c0-1-0.3-1.8-0.8-2.5     c-0.6-0.7-1.3-1-2.3-1s-1.8,0.3-2.3,1c-0.5,0.7-0.8,1.5-0.8,2.5V116.9z M222.9,142.4l-3.7-1.9l18.3-29.3l3.7,1.9L222.9,142.4z      M231.4,136c0-2.2,0.7-4,2.2-5.5c1.4-1.5,3.4-2.2,6-2.2c2.6,0,4.6,0.7,6,2.2c1.4,1.5,2.2,3.3,2.2,5.5v2c0,2.2-0.7,4.1-2.1,5.5     c-1.4,1.5-3.4,2.2-6,2.2c-2.6,0-4.6-0.7-6-2.2c-1.5-1.5-2.2-3.3-2.2-5.5V136z M236.4,138c0,1,0.3,1.8,0.9,2.5     c0.6,0.7,1.4,1,2.3,1c1.1,0,1.9-0.3,2.4-1c0.5-0.6,0.7-1.5,0.7-2.6v-2c0-1-0.3-1.8-0.8-2.5c-0.5-0.7-1.3-1-2.3-1     c-1,0-1.8,0.3-2.4,1c-0.5,0.7-0.8,1.5-0.8,2.5V138z" id="XMLID_141_"/></g></g><g id="XMLID_173_"><rect class="st3" height="361.1" id="XMLID_103_" width="94.9" x="264.3" y="103.3"/><g id="XMLID_92_"><path class="st1" d="M285.4,505.6h-20.6v-4l9.5-10.7c1.4-1.7,2.4-3.1,3-4.2c0.6-1.2,0.9-2.2,0.9-3.2     c0-1.3-0.3-2.3-0.9-3c-0.6-0.8-1.6-1.1-2.8-1.1c-1.3,0-2.4,0.5-3.1,1.5c-0.7,1-1.1,2.2-1.1,3.7h-6l0-0.1c-0.1-2.7,0.8-5,2.7-6.9     c1.9-1.9,4.4-2.8,7.5-2.8c3.1,0,5.6,0.8,7.3,2.4c1.7,1.6,2.6,3.8,2.6,6.5c0,1.8-0.5,3.5-1.5,5s-2.7,3.6-5,6.3l-5.1,6.1l0,0.1     h12.5V505.6z" id="XMLID_101_"/><path class="st1" d="M309.9,494.5c0,3.6-0.9,6.4-2.8,8.5c-1.9,2.1-4.4,3.1-7.5,3.1c-3.1,0-5.7-1-7.6-3.1     c-1.9-2.1-2.8-4.9-2.8-8.5V486c0-3.6,0.9-6.4,2.8-8.5c1.9-2.1,4.4-3.1,7.5-3.1c3.1,0,5.6,1,7.5,3.1c1.9,2.1,2.9,4.9,2.9,8.5     V494.5z M303.8,485.4c0-2-0.4-3.5-1.1-4.6c-0.8-1.1-1.8-1.6-3.1-1.6c-1.3,0-2.4,0.5-3.1,1.6c-0.7,1.1-1.1,2.6-1.1,4.6v9.7     c0,2,0.4,3.6,1.1,4.6c0.7,1.1,1.8,1.6,3.2,1.6c1.3,0,2.4-0.5,3.1-1.6c0.7-1.1,1.1-2.6,1.1-4.6V485.4z" id="XMLID_98_"/><path class="st1" d="M328.7,505.6h-6.1v-25.3h-6.3v-4.7l12.5-1.1V505.6z" id="XMLID_96_"/><path class="st1" d="M347.9,501.3c1.5,0,2.8-0.6,3.7-1.7c1-1.1,1.5-2.7,1.5-4.8v-2c-0.7,0.9-1.5,1.6-2.4,2     c-0.9,0.4-2,0.7-3,0.7c-2.9,0-5.1-0.9-6.7-2.8c-1.6-1.9-2.4-4.4-2.4-7.6c0-3.1,1-5.6,2.9-7.6c1.9-2,4.4-3,7.4-3     c3.1,0,5.6,1,7.6,3.1c2,2.1,2.9,5,2.9,8.6v8.3c0,3.5-1.1,6.3-3.2,8.4c-2.1,2.1-4.8,3.1-8.1,3.1c-1.1,0-2.2-0.1-3.3-0.3     c-1.1-0.2-2.2-0.6-3.2-1l1-4.4c0.9,0.4,1.7,0.6,2.6,0.8C345.8,501.2,346.8,501.3,347.9,501.3z M348.6,491c1,0,1.9-0.2,2.6-0.6     c0.8-0.4,1.4-1,1.8-1.6v-3.6c0-1.9-0.4-3.4-1.2-4.4c-0.8-1-1.8-1.5-3.2-1.5c-1.2,0-2.2,0.6-3,1.7c-0.8,1.1-1.1,2.6-1.1,4.2     c0,1.8,0.3,3.2,1,4.2C346.3,490.4,347.3,491,348.6,491z" id="XMLID_93_"/></g><g id="XMLID_170_"><path class="st1" d="M287.2,81.4h4.2v5.8h-4.2v8.1h-7.5v-8.1h-15.1l-0.4-4.5l15.4-24.6h7.5V81.4z M271,81.4h8.7     V67.9l-0.2,0l-0.8,1.7L271,81.4z" id="XMLID_147_"/><path class="st1" d="M296.4,78.8l2.1-20.8h20.7v6h-14.6l-1,8.7c0.7-0.5,1.6-0.9,2.6-1.3c1.1-0.3,2.2-0.5,3.4-0.5     c3.5-0.1,6.1,1,8,3.2c1.9,2.2,2.8,5.3,2.8,9.2c0,3.6-1,6.6-3.1,9c-2.1,2.3-5.2,3.5-9.4,3.5c-3.4,0-6.3-0.9-8.8-2.7     c-2.4-1.8-3.6-4.3-3.5-7.5l0.1-0.1l7.2-0.3c0,1.5,0.5,2.8,1.4,3.6c0.9,0.9,2.2,1.3,3.7,1.3c1.8,0,3.1-0.6,3.9-1.7     c0.8-1.2,1.2-2.8,1.2-5c0-2.1-0.4-3.8-1.3-5.1c-0.9-1.3-2.2-1.9-3.9-1.9c-1.4,0-2.5,0.3-3.3,0.8c-0.8,0.5-1.3,1.2-1.6,2.1     L296.4,78.8z" id="XMLID_150_"/><path class="st1" d="M325.2,65.2c0-2.2,0.7-4,2.1-5.5s3.4-2.2,5.9-2.2c2.6,0,4.6,0.7,6,2.2     c1.4,1.5,2.1,3.3,2.1,5.5v2c0,2.2-0.7,4-2.1,5.5c-1.4,1.4-3.4,2.2-5.9,2.2c-2.6,0-4.5-0.7-6-2.2c-1.4-1.4-2.1-3.3-2.1-5.5V65.2z      M330.2,67.2c0,1,0.3,1.8,0.8,2.5c0.5,0.7,1.3,1,2.3,1c1,0,1.7-0.3,2.3-1c0.5-0.7,0.8-1.5,0.8-2.5v-2c0-1-0.3-1.8-0.8-2.5     c-0.5-0.7-1.3-1-2.3-1c-1,0-1.8,0.3-2.3,1c-0.5,0.7-0.8,1.5-0.8,2.5V67.2z M334.6,92.5l-3.6-1.9l18.1-29l3.6,1.9L334.6,92.5z      M343,86.1c0-2.2,0.7-4,2.1-5.5c1.4-1.5,3.4-2.2,5.9-2.2c2.6,0,4.5,0.7,6,2.2c1.4,1.5,2.1,3.3,2.1,5.5v2c0,2.2-0.7,4-2.1,5.5     c-1.4,1.4-3.4,2.2-5.9,2.2c-2.6,0-4.5-0.7-6-2.2c-1.4-1.5-2.2-3.3-2.2-5.5V86.1z M347.9,88.1c0,1,0.3,1.8,0.9,2.5     c0.6,0.7,1.4,1,2.3,1c1.1,0,1.9-0.3,2.4-1c0.5-0.6,0.7-1.5,0.7-2.6v-2c0-1-0.3-1.8-0.8-2.5c-0.5-0.7-1.3-1-2.3-1     c-1,0-1.8,0.3-2.3,1c-0.5,0.7-0.8,1.5-0.8,2.5V88.1z" id="XMLID_152_"/></g></g><g id="XMLID_172_"><rect class="st4" height="412.7" id="XMLID_90_" width="94.9" x="375.7" y="51.8"/><g id="XMLID_79_"><path class="st1" d="M396.8,505.6h-20.5v-4l9.5-10.7c1.4-1.7,2.4-3.1,3-4.2c0.6-1.2,0.9-2.2,0.9-3.2     c0-1.3-0.3-2.3-0.9-3c-0.6-0.8-1.6-1.1-2.8-1.1c-1.3,0-2.4,0.5-3.1,1.5c-0.7,1-1.1,2.2-1.1,3.7h-6l0-0.1c-0.1-2.7,0.8-5,2.7-6.9     c1.9-1.9,4.4-2.8,7.5-2.8c3.1,0,5.6,0.8,7.3,2.4c1.7,1.6,2.6,3.8,2.6,6.5c0,1.8-0.5,3.5-1.5,5c-1,1.5-2.7,3.6-5,6.3l-5,6.1l0,0.1     h12.5V505.6z" id="XMLID_88_"/><path class="st1" d="M421.2,494.5c0,3.6-0.9,6.4-2.8,8.4c-1.9,2-4.4,3.1-7.5,3.1c-3.1,0-5.7-1-7.5-3.1     c-1.9-2-2.8-4.9-2.8-8.4v-8.4c0-3.6,0.9-6.4,2.8-8.4c1.9-2.1,4.4-3.1,7.5-3.1c3.1,0,5.6,1,7.5,3.1c1.9,2.1,2.8,4.9,2.8,8.4V494.5     z M415.1,485.4c0-2-0.4-3.5-1.1-4.6c-0.8-1.1-1.8-1.6-3.1-1.6c-1.3,0-2.4,0.5-3.1,1.6c-0.7,1.1-1.1,2.6-1.1,4.6v9.6     c0,2,0.4,3.5,1.1,4.6c0.7,1.1,1.8,1.6,3.2,1.6c1.3,0,2.4-0.5,3.1-1.6c0.7-1.1,1.1-2.6,1.1-4.6V485.4z" id="XMLID_85_"/><path class="st1" d="M446.2,505.6h-20.5v-4l9.5-10.7c1.4-1.7,2.4-3.1,3-4.2c0.6-1.2,0.9-2.2,0.9-3.2     c0-1.3-0.3-2.3-0.9-3c-0.6-0.8-1.6-1.1-2.8-1.1c-1.3,0-2.4,0.5-3.1,1.5c-0.7,1-1.1,2.2-1.1,3.7h-6l0-0.1c-0.1-2.7,0.8-5,2.7-6.9     c1.9-1.9,4.4-2.8,7.5-2.8c3.1,0,5.6,0.8,7.3,2.4c1.7,1.6,2.6,3.8,2.6,6.5c0,1.8-0.5,3.5-1.5,5c-1,1.5-2.7,3.6-5,6.3l-5,6.1l0,0.1     h12.5V505.6z" id="XMLID_83_"/><path class="st1" d="M470.6,494.5c0,3.6-0.9,6.4-2.8,8.4c-1.9,2-4.4,3.1-7.5,3.1c-3.1,0-5.7-1-7.5-3.1     c-1.9-2-2.8-4.9-2.8-8.4v-8.4c0-3.6,0.9-6.4,2.8-8.4c1.9-2.1,4.4-3.1,7.5-3.1c3.1,0,5.6,1,7.5,3.1c1.9,2.1,2.8,4.9,2.8,8.4V494.5     z M464.5,485.4c0-2-0.4-3.5-1.1-4.6c-0.8-1.1-1.8-1.6-3.1-1.6c-1.3,0-2.4,0.5-3.1,1.6c-0.7,1.1-1.1,2.6-1.1,4.6v9.6     c0,2,0.4,3.5,1.1,4.6c0.7,1.1,1.8,1.6,3.2,1.6c1.3,0,2.4-0.5,3.1-1.6c0.7-1.1,1.1-2.6,1.1-4.6V485.4z" id="XMLID_80_"/></g><g id="XMLID_171_"><path class="st1" d="M390.5,6c1.5,0,2.8,0.1,4.1,0.4c1.2,0.3,2.5,0.7,3.7,1.2l-1.3,5.5c-1.2-0.4-2.2-0.7-3.1-0.9     c-0.9-0.2-2-0.3-3.2-0.3c-2.2,0-4,0.8-5.3,2.5c-1.3,1.7-2,4-2,7v1.2c1-1,2.2-1.7,3.6-2.3c1.4-0.5,2.9-0.8,4.6-0.8     c3.2,0,5.7,1.1,7.5,3.4c1.8,2.3,2.7,5.2,2.7,8.9c0,3.8-1.2,6.8-3.5,9.2c-2.3,2.4-5.4,3.5-9.2,3.5c-3.9,0-7.1-1.3-9.6-4     c-2.5-2.7-3.7-6.4-3.7-11v-7.9c0-4.8,1.4-8.6,4.2-11.4C382.7,7.4,386.2,6,390.5,6z M388.9,25.3c-1.4,0-2.5,0.2-3.5,0.7     c-1,0.4-1.7,1-2.2,1.8v2c0,2.9,0.5,5.1,1.6,6.7c1.1,1.6,2.5,2.4,4.2,2.4c1.6,0,2.8-0.7,3.7-2c0.9-1.3,1.4-3,1.4-5     c0-2.1-0.5-3.7-1.4-4.9C391.8,25.9,390.5,25.3,388.9,25.3z" id="XMLID_158_"/><path class="st1" d="M431.4,30.5c0,4.4-1.2,7.9-3.5,10.4c-2.3,2.5-5.4,3.8-9.2,3.8c-3.9,0-6.9-1.3-9.3-3.8     c-2.3-2.5-3.5-6-3.5-10.4V20.2c0-4.4,1.2-7.8,3.5-10.4c2.3-2.5,5.4-3.8,9.2-3.8c3.8,0,6.9,1.3,9.2,3.8c2.3,2.5,3.5,6,3.5,10.4     V30.5z M423.9,19.4c0-2.4-0.5-4.3-1.4-5.6c-0.9-1.3-2.2-2-3.8-2c-1.7,0-2.9,0.7-3.8,2c-0.9,1.3-1.4,3.2-1.4,5.6v11.8     c0,2.5,0.5,4.3,1.4,5.7c0.9,1.3,2.2,2,3.9,2c1.6,0,2.9-0.7,3.8-2c0.9-1.3,1.4-3.2,1.4-5.7V19.4z" id="XMLID_161_"/><path class="st1" d="M436.3,13.8c0-2.2,0.7-4.1,2.2-5.5s3.4-2.2,6-2.2c2.6,0,4.6,0.7,6,2.2     c1.4,1.5,2.1,3.3,2.1,5.6v2c0,2.2-0.7,4.1-2.1,5.5c-1.4,1.5-3.4,2.2-6,2.2c-2.6,0-4.6-0.7-6-2.2c-1.4-1.5-2.2-3.3-2.2-5.5V13.8z      M441.3,15.7c0,1,0.3,1.8,0.8,2.5c0.6,0.7,1.3,1,2.4,1c1,0,1.8-0.3,2.3-1c0.5-0.7,0.8-1.5,0.8-2.5v-2c0-1-0.3-1.8-0.8-2.5     c-0.6-0.7-1.3-1-2.3-1c-1,0-1.8,0.3-2.3,1c-0.5,0.7-0.8,1.5-0.8,2.5V15.7z M445.7,41.3l-3.7-1.9L460.4,10l3.7,1.9L445.7,41.3z      M454.3,34.9c0-2.2,0.7-4,2.2-5.5c1.4-1.5,3.4-2.2,6-2.2c2.6,0,4.6,0.7,6,2.2c1.4,1.5,2.2,3.3,2.2,5.5v2c0,2.2-0.7,4.1-2.1,5.5     c-1.4,1.5-3.4,2.2-6,2.2c-2.6,0-4.6-0.7-6-2.2c-1.5-1.5-2.2-3.3-2.2-5.5V34.9z M459.3,36.9c0,1,0.3,1.8,0.9,2.5     c0.6,0.7,1.4,1,2.3,1c1.1,0,1.9-0.3,2.4-1c0.5-0.6,0.7-1.5,0.7-2.6v-2c0-1-0.3-1.8-0.8-2.5c-0.6-0.7-1.3-1-2.3-1     c-1,0-1.8,0.3-2.4,1c-0.5,0.7-0.8,1.5-0.8,2.5V36.9z" id="XMLID_164_"/></g></g></g></svg>