<?xml version="1.0" ?><svg id="Layer_1" style="enable-background:new 0 0 50 50;" version="1.1" viewBox="0 0 50 50" xml:space="preserve" xmlns="http://www.w3.org/2000/svg" xmlns:xlink="http://www.w3.org/1999/xlink"><style type="text/css">
	.st0{fill:#F0C4DB;}
	.st1{fill:#FF9D9C;}
	.st2{fill:#9BEAF9;}
	.st3{fill:#E9F4BC;}
	.st4{fill:#505050;}
	.st5{fill:#FEBECC;}
	.st6{fill:#FFFFFF;}
	.st7{fill:#FDE4A1;}
	.st8{fill:#FEE7B5;}
	.st9{fill:#CDF6FC;}
	.st10{fill:#F2C6DD;}
	.st11{opacity:0.1;}
</style><g><path class="st9" d="M48.85,26.92c-3.56-2.78-8.03-4.45-12.9-4.45c-11.6,0-21,9.4-21,21c0,1.55,0.18,3.06,0.5,4.52h33.4V26.92z"/><g><path class="st6" d="M47.6,30.24c-0.6-1.68-2.6-2.41-4.24-1.72l-15.7,6.66c0.46-0.33,0.84-0.79,1.06-1.35    c0.64-1.58-0.12-3.36-1.7-4l-8.4-3.4c-1.72-0.7-3.65-0.68-5.36,0.05l-7.19,3.05l4.08,9.62l3.34-1.42l10.51,4.25    c1.1,0.45,2.34,0.44,3.43-0.03l18.49-7.85c0.78-0.33,1.35-0.95,1.65-1.67C47.83,31.76,47.87,30.97,47.6,30.24z"/><polygon class="st1" points="5.42,45.2 1.78,29.06 5.23,27.6 11.12,41.48   "/><circle class="st7" cx="33.37" cy="15.18" r="12.41"/><g><path class="st4" d="M47.99,31.35c-0.4-0.11-0.82,0.14-0.92,0.53c-0.05,0.19-0.02,0.4,0.08,0.57c0.1,0.17,0.26,0.29,0.45,0.35     c0.07,0.01,0.13,0.02,0.2,0.02c0.33,0,0.63-0.23,0.72-0.56C48.63,31.86,48.39,31.45,47.99,31.35z"/><path class="st4" d="M46.25,33.12c-0.16,0.12-0.33,0.23-0.52,0.31l-18.49,7.84c-0.9,0.38-1.94,0.39-2.85,0.02l-10.52-4.25     c-0.18-0.08-0.39-0.07-0.57,0l-2.65,1.13l-3.49-8.24l6.5-2.75c1.52-0.65,3.26-0.66,4.79-0.05l8.4,3.4     c0.88,0.36,1.46,1.2,1.46,2.15c0,0.29-0.06,0.59-0.18,0.87c-0.14,0.36-0.38,0.67-0.68,0.91c-0.28,0.03-0.54,0.02-0.83-0.05     c-0.1-0.02-0.19-0.05-0.3-0.09l-7.29-2.14c-0.39-0.12-0.82,0.12-0.93,0.5c-0.12,0.4,0.11,0.82,0.5,0.94l7.19,2.1     c0.15,0.06,0.31,0.11,0.48,0.15c0.31,0.08,0.62,0.12,0.94,0.12c0.23,0,0.47-0.03,0.7-0.07c0.03-0.01,0.06-0.03,0.09-0.04     c0.02-0.01,0.04,0,0.06-0.01l15.71-6.66c0.31-0.13,0.65-0.2,0.99-0.2c1,0,1.86,0.55,2.21,1.39c0.15,0.37,0.6,0.56,0.98,0.4     c0.18-0.07,0.33-0.22,0.41-0.4c0.07-0.18,0.07-0.39,0-0.58c-0.59-1.4-2-2.31-3.6-2.31c-0.55,0-1.08,0.11-1.58,0.32L29.7,33.55     c0.07-0.29,0.11-0.58,0.11-0.87c0-1.56-0.94-2.95-2.4-3.54l-8.4-3.4c-1.89-0.76-4.06-0.75-5.94,0.06l-6.5,2.76L6.04,27.3     c-0.16-0.37-0.61-0.55-0.98-0.39l-3.45,1.46c-0.34,0.14-0.52,0.5-0.44,0.85L4.8,45.37c0.05,0.24,0.22,0.43,0.45,0.53     c0.09,0.03,0.19,0.05,0.28,0.05c0.15,0,0.29-0.04,0.41-0.12l5.71-3.72c0.3-0.2,0.42-0.59,0.28-0.92l-0.7-1.64l2.37-1l10.22,4.13     c0.63,0.26,1.29,0.39,1.97,0.39c0.7,0,1.39-0.14,2.04-0.42l18.49-7.84c0.3-0.13,0.59-0.3,0.85-0.51     c0.33-0.25,0.39-0.72,0.13-1.05C47.06,32.93,46.57,32.87,46.25,33.12z M6.03,43.98L2.77,29.5l2.18-0.92c0,0,0.53,1.25,0.53,1.25     c0,0,4.09,9.64,4.1,9.64l0.73,1.73L6.03,43.98z"/><path class="st4" d="M33.49,28.35c7.26,0,13.17-5.91,13.17-13.17c0-7.26-5.91-13.16-13.17-13.16S20.33,7.92,20.33,15.18     C20.33,22.44,26.23,28.35,33.49,28.35z M33.49,3.52c6.43,0,11.67,5.23,11.67,11.66c0,6.43-5.23,11.67-11.67,11.67     s-11.67-5.23-11.67-11.67C21.83,8.75,27.06,3.52,33.49,3.52z"/><path class="st4" d="M27.42,16.48c0,0.41,0.34,0.75,0.75,0.75h1c0.3,0.87,0.79,1.68,1.48,2.37c1.2,1.2,2.79,1.84,4.41,1.84     c0.66,0,1.32-0.1,1.96-0.32c0.39-0.13,0.61-0.55,0.48-0.95c-0.13-0.39-0.55-0.61-0.95-0.48c-1.71,0.56-3.57,0.12-4.85-1.16     c-0.39-0.39-0.68-0.84-0.9-1.31h4.65c0.41,0,0.75-0.34,0.75-0.75s-0.34-0.75-0.75-0.75h-5.08c-0.04-0.37-0.04-0.74,0-1.1h5.08     c0.41,0,0.75-0.34,0.75-0.75s-0.34-0.75-0.75-0.75h-4.65c0.23-0.47,0.51-0.92,0.9-1.31c1.28-1.28,3.14-1.72,4.85-1.16     c0.39,0.13,0.82-0.08,0.95-0.48c0.13-0.39-0.08-0.82-0.48-0.95c-2.25-0.75-4.69-0.16-6.38,1.52c-0.69,0.69-1.18,1.5-1.48,2.37h-1     c-0.41,0-0.75,0.34-0.75,0.75s0.34,0.75,0.75,0.75h0.68c-0.03,0.37-0.03,0.74,0,1.1h-0.68C27.76,15.73,27.42,16.07,27.42,16.48z"/></g></g></g></svg>