<?xml version="1.0" ?><!DOCTYPE svg  PUBLIC '-//W3C//DTD SVG 1.1//EN'  'http://www.w3.org/Graphics/SVG/1.1/DTD/svg11.dtd'><svg enable-background="new 0 0 512 512" height="512px" id="Layer_1" version="1.1" viewBox="0 0 512 512" width="512px" xml:space="preserve" xmlns="http://www.w3.org/2000/svg" xmlns:xlink="http://www.w3.org/1999/xlink"><g><g><rect fill="#D9DCE1" height="81.648" width="78.972" x="103.13" y="215.178"/><path d="M182.102,306.826H103.13c-5.523,0-10-4.477-10-10v-81.648c0-5.523,4.477-10,10-10h78.972    c5.523,0,10,4.477,10,10v81.648C192.102,302.349,187.625,306.826,182.102,306.826z M113.13,286.826h58.972v-61.648H113.13V286.826    z" fill="#444B54"/></g><g><rect fill="#D9DCE1" height="81.648" width="78.972" x="103.13" y="76.223"/><path d="M182.102,167.871H103.13c-5.523,0-10-4.477-10-10V76.223c0-5.523,4.477-10,10-10h78.972    c5.523,0,10,4.477,10,10v81.648C192.102,163.394,187.625,167.871,182.102,167.871z M113.13,147.871h58.972V86.223H113.13V147.871z    " fill="#444B54"/></g><g><polyline fill="#D9DCE1" points="137.993,113.535 156.535,131.409 205.05,84.65   "/><path d="M156.535,141.409c-2.502,0-5.003-0.934-6.94-2.8l-18.542-17.875c-3.976-3.833-4.092-10.164-0.259-14.14    s10.165-4.093,14.14-0.259l11.602,11.185l41.575-40.07c3.976-3.832,10.307-3.716,14.14,0.261    c3.833,3.977,3.716,10.307-0.261,14.14l-48.515,46.759C161.538,140.476,159.037,141.409,156.535,141.409z" fill="#444B54"/></g><g><polyline fill="#D9DCE1" points="137.993,254.597 156.535,272.472 205.05,225.713   "/><path d="M156.535,282.472c-2.502,0-5.003-0.934-6.94-2.8l-18.542-17.875c-3.976-3.833-4.092-10.164-0.259-14.14    s10.165-4.093,14.14-0.259l11.602,11.185l41.575-40.07c3.976-3.833,10.307-3.716,14.14,0.261    c3.833,3.977,3.716,10.307-0.261,14.14l-48.515,46.759C161.538,281.538,159.037,282.472,156.535,282.472z" fill="#444B54"/></g><g><rect fill="#D9DCE1" height="81.648" width="78.972" x="103.13" y="76.223"/><path d="M182.102,167.871H103.13c-5.523,0-10-4.477-10-10V76.223c0-5.523,4.477-10,10-10h78.972    c5.523,0,10,4.477,10,10v81.648C192.102,163.394,187.625,167.871,182.102,167.871z M113.13,147.871h58.972V86.223H113.13V147.871z    " fill="#444B54"/></g><g><rect fill="#D9DCE1" height="81.648" width="78.972" x="103.13" y="215.178"/><path d="M182.102,306.826H103.13c-5.523,0-10-4.477-10-10v-81.648c0-5.523,4.477-10,10-10h78.972    c5.523,0,10,4.477,10,10v81.648C192.102,302.349,187.625,306.826,182.102,306.826z M113.13,286.826h58.972v-61.648H113.13V286.826    z" fill="#444B54"/></g><g><path d="M182.099,369.777c-2.56,0-5.119-0.976-7.071-2.929l-5.649-5.65c-3.905-3.905-3.905-10.237,0-14.142    c3.906-3.904,10.238-3.905,14.142,0l5.649,5.65c3.905,3.905,3.905,10.237,0,14.142    C187.217,368.801,184.658,369.777,182.099,369.777z" fill="#444B54"/></g><g><path d="M182.099,445.777h-78.97c-5.523,0-10-4.477-10-10v-81.65c0-5.523,4.477-10,10-10h61.32    c3.141,0,6.1,1.476,7.989,3.985c1.89,2.509,2.49,5.761,1.622,8.779l-9.453,32.86l14.729-4.235    c3.018-0.871,6.269-0.268,8.779,1.622c2.509,1.89,3.985,4.848,3.985,7.989v40.65C192.099,441.3,187.622,445.777,182.099,445.777z     M113.129,425.777h58.97v-17.369l-19.336,5.56c-3.498,1.007-7.263,0.033-9.835-2.54c-2.572-2.573-3.544-6.339-2.539-9.835    l10.778-37.465h-38.038V425.777z" fill="#444B54"/></g><g><path d="M209.549,397.237C209.548,397.237,209.548,397.237,209.549,397.237c-2.653,0-5.197-1.054-7.072-2.93    l-42.418-42.428c-1.875-1.875-2.929-4.419-2.929-7.071c0-2.652,1.054-5.196,2.929-7.071l177.319-177.32    c3.906-3.905,10.236-3.905,14.143,0l42.431,42.43c1.875,1.875,2.929,4.419,2.929,7.071s-1.054,5.196-2.929,7.071L216.62,394.309    C214.745,396.184,212.201,397.237,209.549,397.237z M181.271,344.808l28.279,28.287l163.186-163.177l-28.288-28.288    L181.271,344.808z" fill="#444B54"/></g><g><path d="M150,414.357c-2.616,0-5.17-1.027-7.072-2.929c-2.572-2.573-3.545-6.339-2.539-9.835l17.129-59.548    c0.979-3.402,3.683-6.034,7.11-6.919c3.427-0.887,7.068,0.107,9.571,2.611l42.421,42.431c2.503,2.504,3.496,6.144,2.61,9.571    c-0.886,3.428-3.518,6.131-6.919,7.109l-59.549,17.12C151.852,414.23,150.921,414.357,150,414.357z M172.051,363.872l-7.445,25.88    l25.879-7.44L172.051,363.872z" fill="#444B54"/></g><g><path d="M389.696,216.918c-2.56,0-5.118-0.976-7.071-2.929l-42.426-42.426c-3.905-3.905-3.905-10.237,0-14.142    l19.174-19.174c3.906-3.905,10.236-3.905,14.143,0l42.427,42.426c1.875,1.875,2.929,4.419,2.929,7.071s-1.054,5.196-2.929,7.071    l-19.175,19.174C394.814,215.941,392.255,216.918,389.696,216.918z M361.413,164.492l28.283,28.284l5.032-5.032l-28.284-28.284    L361.413,164.492z" fill="#444B54"/></g><g><polyline fill="#D9DCE1" points="137.993,113.535 156.535,131.409 205.05,84.65   "/><path d="M156.535,141.409c-2.502,0-5.003-0.934-6.94-2.8l-18.542-17.875c-3.976-3.833-4.092-10.164-0.259-14.14    s10.165-4.093,14.14-0.259l11.602,11.185l41.575-40.07c3.976-3.832,10.307-3.716,14.14,0.261    c3.833,3.977,3.716,10.307-0.261,14.14l-48.515,46.759C161.538,140.476,159.037,141.409,156.535,141.409z" fill="#444B54"/></g><g><polyline fill="#D9DCE1" points="137.993,254.597 156.535,272.472 205.05,225.713   "/><path d="M156.535,282.472c-2.502,0-5.003-0.934-6.94-2.8l-18.542-17.875c-3.976-3.833-4.092-10.164-0.259-14.14    s10.165-4.093,14.14-0.259l11.602,11.185l41.575-40.07c3.976-3.833,10.307-3.716,14.14,0.261    c3.833,3.977,3.716,10.307-0.261,14.14l-48.515,46.759C161.538,281.538,159.037,282.472,156.535,282.472z" fill="#444B54"/></g><g><path d="M182.099,369.777c-2.56,0-5.119-0.976-7.071-2.929l-5.649-5.65c-3.905-3.905-3.905-10.237,0-14.142    c3.906-3.904,10.238-3.905,14.142,0l5.649,5.65c3.905,3.905,3.905,10.237,0,14.142    C187.217,368.801,184.658,369.777,182.099,369.777z" fill="#444B54"/></g><g><polygon fill="#D9DCE1" points="182.099,395.127 182.099,435.777 103.129,435.777 103.129,354.127 164.449,354.127     149.999,404.357   "/><path d="M182.099,445.777h-78.97c-5.523,0-10-4.477-10-10v-81.65c0-5.523,4.477-10,10-10h61.32    c3.141,0,6.1,1.476,7.989,3.985c1.89,2.509,2.49,5.761,1.622,8.779l-9.453,32.86l14.729-4.235    c3.018-0.871,6.269-0.268,8.779,1.622c2.509,1.89,3.985,4.848,3.985,7.989v40.65C192.099,441.3,187.622,445.777,182.099,445.777z     M113.129,425.777h58.97v-17.369l-19.336,5.56c-3.498,1.007-7.263,0.033-9.835-2.54c-2.572-2.573-3.544-6.339-2.539-9.835    l10.778-37.465h-38.038V425.777z" fill="#444B54"/></g><g><polygon fill="#3C74BA" points="386.879,209.917 209.549,387.237 182.099,359.777 176.449,354.127 167.129,344.808     344.448,167.487   "/><path d="M209.549,397.237C209.548,397.237,209.548,397.237,209.549,397.237c-2.653,0-5.197-1.054-7.072-2.93    l-42.418-42.428c-1.875-1.875-2.929-4.419-2.929-7.071c0-2.652,1.054-5.196,2.929-7.071l177.319-177.32    c3.906-3.905,10.236-3.905,14.143,0l42.431,42.43c1.875,1.875,2.929,4.419,2.929,7.071s-1.054,5.196-2.929,7.071L216.62,394.309    C214.745,396.184,212.201,397.237,209.549,397.237z M181.271,344.808l28.279,28.287l163.186-163.177l-28.288-28.288    L181.271,344.808z" fill="#444B54"/></g><g><path d="M150,414.357c-2.616,0-5.17-1.027-7.072-2.929c-2.572-2.573-3.545-6.339-2.539-9.835l17.129-59.548    c0.979-3.402,3.683-6.034,7.11-6.919c3.427-0.887,7.068,0.107,9.571,2.611l42.421,42.431c2.503,2.504,3.496,6.144,2.61,9.571    c-0.886,3.428-3.518,6.131-6.919,7.109l-59.549,17.12C151.852,414.23,150.921,414.357,150,414.357z M172.051,363.872l-7.445,25.88    l25.879-7.44L172.051,363.872z" fill="#444B54"/></g><g><path d="M389.696,216.918c-2.56,0-5.118-0.976-7.071-2.929l-42.426-42.426c-3.905-3.905-3.905-10.237,0-14.142    l19.174-19.174c3.906-3.905,10.236-3.905,14.143,0l42.427,42.426c1.875,1.875,2.929,4.419,2.929,7.071s-1.054,5.196-2.929,7.071    l-19.175,19.174C394.814,215.941,392.255,216.918,389.696,216.918z M361.413,164.492l28.283,28.284l5.032-5.032l-28.284-28.284    L361.413,164.492z" fill="#444B54"/></g></g></svg>