<?xml version="1.0" ?><svg viewBox="0 0 128 128" xmlns="http://www.w3.org/2000/svg"><defs><style>.cls-1{fill:#333;}.cls-2{fill:#87dbec;}.cls-3{fill:#e1f6fa;}.cls-4{fill:#1f1f1f;}.cls-5{fill:#4d4d4d;}.cls-6{fill:#4d91bb;}</style></defs><title/><g data-name="35 Glasses" id="_35_Glasses"><path class="cls-1" d="M69,84H58c-4,0-4-6,0-6H69C73,78,73,84,69,84Z"/><path class="cls-1" d="M26,84H21.55a7,7,0,0,1-6.64-9.21L27.79,36.15A9,9,0,0,1,36.32,30H42c4,0,4,6,0,6H36.32a3,3,0,0,0-2.85,2.05L20.6,76.68A1,1,0,0,0,21.55,78H26C30,78,30,84,26,84Z"/><circle class="cls-2" cx="42" cy="81" r="16"/><path class="cls-3" d="M35.2,95.47a16,16,0,0,1-2.66-1.58L54.88,71.54a16,16,0,0,1,1.58,2.66ZM47.87,66.12,27.12,86.87A16,16,0,0,0,30.44,92L53,69.44A16,16,0,0,0,47.87,66.12Z"/><path class="cls-1" d="M42,100A19,19,0,1,1,61,81,19,19,0,0,1,42,100Zm0-32A13,13,0,1,0,55,81,13,13,0,0,0,42,68Z"/><path class="cls-4" d="M41.58,67.58a13,13,0,0,1,9.39,4A13,13,0,0,0,32.61,90,13,13,0,0,1,41.58,67.58Zm13.63-.21a18.92,18.92,0,0,1,5.37,13.21c0,16.7-20.17,25.31-32.21,13.63C40.22,106.43,61,98,61,81A18.93,18.93,0,0,0,55.21,67.37Z"/><path class="cls-5" d="M33.16,90.51A13,13,0,0,0,51.51,72.16a13,13,0,0,1,4.16,9.51C55.67,93.4,41.21,99.16,33.16,90.51Zm-9.49-8.84c0-16.64,20-25.24,32.08-13.75C43.92,55.5,23,63.94,23,81a18.93,18.93,0,0,0,5.92,13.75A18.92,18.92,0,0,1,23.67,81.67Z"/><path class="cls-6" d="M42.35,68.35a13,13,0,0,1,9,3.64A13,13,0,1,0,33,90.36,13,13,0,0,1,42.35,68.35Z"/><path class="cls-1" d="M106.45,84H103c-4,0-4-6,0-6,3.16,0,3.81.23,4.28-.42a1,1,0,0,0,.14-.9L94.52,38.05A3,3,0,0,0,91.68,36H86c-4,0-4-6,0-6h5.68a9,9,0,0,1,8.54,6.15l12.88,38.63A7,7,0,0,1,106.45,84Z"/><circle class="cls-2" cx="86" cy="81" r="16"/><path class="cls-3" d="M79.2,95.47a16,16,0,0,1-2.66-1.58L98.88,71.54a16,16,0,0,1,1.58,2.66ZM91.87,66.12,71.12,86.87A16,16,0,0,0,74.44,92L97,69.44A16,16,0,0,0,91.87,66.12Z"/><path class="cls-1" d="M86,100a19,19,0,1,1,19-19A19,19,0,0,1,86,100Zm0-32A13,13,0,1,0,99,81,13,13,0,0,0,86,68Z"/><path class="cls-4" d="M85.58,67.58a13,13,0,0,1,9.39,4A13,13,0,0,0,76.61,90,13,13,0,0,1,85.58,67.58Zm13.63-.21c11.67,12,3.08,32.21-13.63,32.21a18.92,18.92,0,0,1-13.21-5.37A18.93,18.93,0,0,0,86,100C103,100,111.43,79.23,99.21,67.37Z"/><path class="cls-5" d="M77.16,90.51A13,13,0,0,0,95.51,72.16c8.66,8.06,2.89,22.51-8.84,22.51A13,13,0,0,1,77.16,90.51Zm-9.49-8.84c0-16.64,20-25.24,32.08-13.75C87.92,55.5,67,63.94,67,81a18.93,18.93,0,0,0,5.92,13.75A18.92,18.92,0,0,1,67.67,81.67Z"/><path class="cls-6" d="M86.35,68.35a13,13,0,0,1,9,3.64A13,13,0,1,0,77,90.36,13,13,0,0,1,86.35,68.35Z"/></g></svg>