<?xml version="1.0" ?><!DOCTYPE svg  PUBLIC '-//W3C//DTD SVG 1.1//EN'  'http://www.w3.org/Graphics/SVG/1.1/DTD/svg11.dtd'><svg enable-background="new 0 0 512 512" height="512px" id="Layer_1" version="1.1" viewBox="0 0 512 512" width="512px" xml:space="preserve" xmlns="http://www.w3.org/2000/svg" xmlns:xlink="http://www.w3.org/1999/xlink"><g><g><path d="M342.223,462.095H106.186c-5.522,0-10-4.478-10-10V115.767c0-5.522,4.478-10,10-10h63.592    c5.522,0,10,4.478,10,10v270.466h162.445c5.522,0,10,4.478,10,10v55.862C352.223,457.617,347.745,462.095,342.223,462.095z     M116.186,442.095h216.037v-35.862H169.777c-5.522,0-10-4.478-10-10V125.767h-43.592V442.095z" fill="#444B54"/></g><g><path d="M405.814,406.232H169.777c-5.522,0-10-4.478-10-10V59.905c0-5.522,4.478-10,10-10h236.037    c5.522,0,10,4.478,10,10v336.327C415.814,401.755,411.337,406.232,405.814,406.232z M179.777,386.232h216.037V69.905H179.777    V386.232z" fill="#444B54"/></g><g><path d="M219.15,157.577c-2.86,0-5.696-1.221-7.671-3.578l-13.076-15.608c-3.547-4.233-2.99-10.541,1.243-14.087    c4.233-3.549,10.54-2.991,14.087,1.243l6.798,8.114l32.438-25.951c4.313-3.451,10.606-2.75,14.056,1.562    c3.45,4.313,2.751,10.605-1.562,14.056l-40.072,32.059C223.55,156.859,221.343,157.577,219.15,157.577z" fill="#444B54"/></g><g><path d="M380.455,141.548h-97c-5.522,0-10-4.478-10-10s4.478-10,10-10h97c5.522,0,10,4.478,10,10    S385.978,141.548,380.455,141.548z" fill="#444B54"/></g><g><path d="M327.455,172.734h-46.5c-5.522,0-10-4.478-10-10s4.478-10,10-10h46.5c5.522,0,10,4.478,10,10    S332.978,172.734,327.455,172.734z" fill="#444B54"/></g><g><path d="M380.455,224.976h-97c-5.522,0-10-4.478-10-10s4.478-10,10-10h97c5.522,0,10,4.478,10,10    S385.978,224.976,380.455,224.976z" fill="#444B54"/></g><g><path d="M327.455,256.162h-46.5c-5.522,0-10-4.478-10-10s4.478-10,10-10h46.5c5.522,0,10,4.478,10,10    S332.978,256.162,327.455,256.162z" fill="#444B54"/></g><g><path d="M380.455,320.05h-97c-5.522,0-10-4.478-10-10s4.478-10,10-10h97c5.522,0,10,4.478,10,10    S385.978,320.05,380.455,320.05z" fill="#444B54"/></g><g><path d="M327.455,351.236h-46.5c-5.522,0-10-4.478-10-10s4.478-10,10-10h46.5c5.522,0,10,4.478,10,10    S332.978,351.236,327.455,351.236z" fill="#444B54"/></g><g><path d="M243.355,259.489h-40.133c-5.522,0-10-4.478-10-10v-37.84c0-5.522,4.478-10,10-10h40.133    c5.522,0,10,4.478,10,10v37.84C253.355,255.012,248.878,259.489,243.355,259.489z M213.223,239.489h20.133v-17.84h-20.133V239.489    z" fill="#444B54"/></g><g><path d="M243.355,361.236h-40.133c-5.522,0-10-4.478-10-10v-37.84c0-5.522,4.478-10,10-10h40.133    c5.522,0,10,4.478,10,10v37.84C253.355,356.759,248.878,361.236,243.355,361.236z M213.223,341.236h20.133v-17.84h-20.133V341.236    z" fill="#444B54"/></g><g><polygon fill="#65A0D6" points="342.223,396.232 342.223,452.095 106.186,452.095 106.186,115.767 169.777,115.767     169.777,396.232   "/><path d="M342.223,462.095H106.186c-5.522,0-10-4.478-10-10V115.767c0-5.522,4.478-10,10-10h63.592    c5.522,0,10,4.478,10,10v270.466h162.445c5.522,0,10,4.478,10,10v55.862C352.223,457.617,347.745,462.095,342.223,462.095z     M116.186,442.095h216.037v-35.862H169.777c-5.522,0-10-4.478-10-10V125.767h-43.592V442.095z" fill="#444B54"/></g><g><rect fill="#D9DCE1" height="336.327" width="236.037" x="169.777" y="59.905"/><path d="M405.814,406.232H169.777c-5.522,0-10-4.478-10-10V59.905c0-5.522,4.478-10,10-10h236.037    c5.522,0,10,4.478,10,10v336.327C415.814,401.755,411.337,406.232,405.814,406.232z M179.777,386.232h216.037V69.905H179.777    V386.232z" fill="#444B54"/></g><g><path d="M219.15,157.577c-2.86,0-5.696-1.221-7.671-3.578l-13.076-15.608c-3.547-4.233-2.99-10.541,1.243-14.087    c4.233-3.549,10.54-2.991,14.087,1.243l6.798,8.114l32.438-25.951c4.313-3.451,10.606-2.75,14.056,1.562    c3.45,4.313,2.751,10.605-1.562,14.056l-40.072,32.059C223.55,156.859,221.343,157.577,219.15,157.577z" fill="#444B54"/></g><g><path d="M380.455,141.548h-97c-5.522,0-10-4.478-10-10s4.478-10,10-10h97c5.522,0,10,4.478,10,10    S385.978,141.548,380.455,141.548z" fill="#444B54"/></g><g><path d="M327.455,172.734h-46.5c-5.522,0-10-4.478-10-10s4.478-10,10-10h46.5c5.522,0,10,4.478,10,10    S332.978,172.734,327.455,172.734z" fill="#444B54"/></g><g><path d="M380.455,224.976h-97c-5.522,0-10-4.478-10-10s4.478-10,10-10h97c5.522,0,10,4.478,10,10    S385.978,224.976,380.455,224.976z" fill="#444B54"/></g><g><path d="M327.455,256.162h-46.5c-5.522,0-10-4.478-10-10s4.478-10,10-10h46.5c5.522,0,10,4.478,10,10    S332.978,256.162,327.455,256.162z" fill="#444B54"/></g><g><path d="M380.455,320.05h-97c-5.522,0-10-4.478-10-10s4.478-10,10-10h97c5.522,0,10,4.478,10,10    S385.978,320.05,380.455,320.05z" fill="#444B54"/></g><g><path d="M327.455,351.236h-46.5c-5.522,0-10-4.478-10-10s4.478-10,10-10h46.5c5.522,0,10,4.478,10,10    S332.978,351.236,327.455,351.236z" fill="#444B54"/></g><g><rect fill="#3C74BA" height="37.84" width="40.133" x="203.223" y="211.649"/><path d="M243.355,259.489h-40.133c-5.522,0-10-4.478-10-10v-37.84c0-5.522,4.478-10,10-10h40.133    c5.522,0,10,4.478,10,10v37.84C253.355,255.012,248.878,259.489,243.355,259.489z M213.223,239.489h20.133v-17.84h-20.133V239.489    z" fill="#444B54"/></g><g><rect fill="#3C74BA" height="37.84" width="40.133" x="203.223" y="313.396"/><path d="M243.355,361.236h-40.133c-5.522,0-10-4.478-10-10v-37.84c0-5.522,4.478-10,10-10h40.133    c5.522,0,10,4.478,10,10v37.84C253.355,356.759,248.878,361.236,243.355,361.236z M213.223,341.236h20.133v-17.84h-20.133V341.236    z" fill="#444B54"/></g></g></svg>